<?xml version="1.0" encoding="UTF-8"?>
<svg version="1.1" xmlns="http://www.w3.org/2000/svg" width="400" height="400">
<path d="M0 0 C132 0 264 0 400 0 C400 132 400 264 400 400 C268 400 136 400 0 400 C0 268 0 136 0 0 Z " fill="#000000" transform="translate(0,0)"/>
<path d="M0 0 C7.2456049 4.07781261 12.2555159 10.0291083 14.75 18 C15.16501575 21.12280608 15.1707714 24.20623469 15.15405273 27.35327148 C15.16091599 28.26493576 15.16777924 29.17660004 15.17485046 30.1158905 C15.19308737 33.1177854 15.18928204 36.11915552 15.18359375 39.12109375 C15.18816016 41.22510445 15.19346709 43.32911366 15.19947815 45.43312073 C15.20840557 49.84374037 15.20599392 54.25417896 15.19604492 58.66479492 C15.18461244 64.27611793 15.2046807 69.88680625 15.23396206 75.49804592 C15.25245428 79.84709049 15.25200489 84.19598703 15.24632454 88.54506111 C15.24617261 90.61120551 15.2521093 92.67736078 15.26461601 94.74346733 C15.34576464 110.35935724 14.28332997 124.86870071 6.625 138.875 C6.27824219 139.54917969 5.93148437 140.22335937 5.57421875 140.91796875 C4.16947674 143.60366325 2.9043182 145.8456818 0.75 148 C0.71842622 150.03449286 0.71842622 150.03449286 1.75 152 C3.80559544 153.50987654 3.80559544 153.50987654 6.375 154.625 C7.21289062 155.02976562 8.05078125 155.43453125 8.9140625 155.8515625 C21.41140541 160.91246996 37.21759665 160.99022351 49.890625 156.328125 C64.25973485 149.65394829 73.50734313 140.03455595 79.0625 125.1875 C80.81471974 120.18221409 81.86609373 115.49846254 81.90821838 110.18473816 C81.9180072 109.24389374 81.92779602 108.30304932 81.93788147 107.33369446 C81.94363693 106.31373886 81.9493924 105.29378326 81.95532227 104.24291992 C81.96522186 103.15954346 81.97512146 102.07616699 81.98532104 100.95996094 C82.01687692 97.38348568 82.0416702 93.80699714 82.06640625 90.23046875 C82.08698087 87.748964 82.10797748 85.26746272 82.12937927 82.78596497 C82.18454739 76.25776985 82.23397992 69.72954339 82.28222656 63.20129395 C82.33196357 56.53846093 82.388146 49.87568008 82.44335938 43.21289062 C82.55087664 30.14196594 82.65233593 17.07100176 82.75 4 C87.04 4 91.33 4 95.75 4 C95.86641657 18.16164076 95.95497915 32.32316561 96.00906086 46.48518944 C96.03503184 53.06289075 96.07019977 59.64026201 96.12719727 66.21777344 C96.18196478 72.5785504 96.21151424 78.93901211 96.22438622 85.30000687 C96.23354633 87.71342549 96.25143119 90.12682903 96.27865028 92.54011154 C96.53217386 115.97335939 93.35893871 136.21087674 76.75 154 C62.38480789 167.67902731 45.91154697 173.50629989 26.390625 173.20703125 C13.51370703 172.78007079 0.84924112 168.09914691 -9.25 160 C-11.64028931 161.18629173 -14.01599718 162.3958765 -16.38671875 163.62109375 C-34.17406897 172.7202333 -51.86626007 176.21807751 -71.39453125 170.38671875 C-87.16553073 165.06355985 -101.55965112 153.10216909 -109.23046875 138.3125 C-114.31275558 127.94756325 -116.55628732 119.06790158 -116.47705078 107.53515625 C-116.47734283 106.41232742 -116.47763489 105.2894986 -116.47793579 104.13264465 C-116.47654884 100.44251626 -116.46101734 96.75259288 -116.4453125 93.0625 C-116.44158012 90.49560659 -116.43873421 87.92871175 -116.43673706 85.36181641 C-116.42989594 79.30945555 -116.41415285 73.25717859 -116.39403808 67.20484924 C-116.37162436 60.31000472 -116.36067194 53.41515658 -116.35064721 46.52028465 C-116.3297849 32.34681632 -116.29423675 18.17341338 -116.25 4 C-112.29 4 -108.33 4 -104.25 4 C-104.24857498 5.35730728 -104.24714996 6.71461456 -104.24568176 8.11305237 C-104.22895287 20.95573729 -104.18599956 33.79810775 -104.11790943 46.64062595 C-104.08373856 53.24182671 -104.05854482 59.84279844 -104.05444336 66.4440918 C-104.05013925 72.82449978 -104.02150117 79.20439199 -103.97656822 85.5846386 C-103.96366065 88.00882898 -103.95926138 90.4330813 -103.96384621 92.85730171 C-103.99294025 112.92680935 -101.85815408 129.2314273 -88.25 145 C-82.16791362 150.14343368 -75.74063821 154.27367763 -68.25 157 C-67.37859375 157.35449219 -66.5071875 157.70898438 -65.609375 158.07421875 C-52.68337294 161.63638443 -38.26869993 159.49824546 -26.25 154 C-24.56425428 153.03250884 -22.88990915 152.04330041 -21.25 151 C-21.88350615 147.39068207 -23.42967923 145.05546372 -25.5 142.0625 C-32.90592934 130.6793123 -35.39431974 119.60785587 -35.41113281 106.22851562 C-35.41858017 104.79544319 -35.41858017 104.79544319 -35.42617798 103.3334198 C-35.44071538 100.19102241 -35.44758585 97.04867541 -35.453125 93.90625 C-35.45888133 91.71341959 -35.464639 89.52058919 -35.47039795 87.32775879 C-35.48088252 82.7381975 -35.48674249 78.1486536 -35.49023438 73.55908203 C-35.49572797 67.68469558 -35.51978534 61.81053986 -35.54820633 55.93622589 C-35.56684337 51.410007 -35.57203878 46.88384374 -35.57357025 42.35758972 C-35.57659252 40.19189689 -35.58460662 38.02620495 -35.59775543 35.86054993 C-35.61484553 32.83068274 -35.61292883 29.80138045 -35.60644531 26.77148438 C-35.6156601 25.88192551 -35.62487488 24.99236664 -35.6343689 24.07585144 C-35.58228203 16.28961905 -33.42367713 10.45166618 -28.1015625 4.64453125 C-19.92194264 -2.62048977 -10.02384458 -4.46516713 0 0 Z " fill="#F9F9F9" transform="translate(210.25,116)"/>
<path d="M0 0 C4.09878376 2.08665355 6.28337828 3.76502437 8 8 C8.26285553 9.97800064 8.26285553 9.97800064 8.28088379 12.09381104 C8.29801422 13.30425583 8.29801422 13.30425583 8.31549072 14.53915405 C8.31772644 15.41600861 8.31996216 16.29286316 8.32226562 17.19628906 C8.33219543 18.1270224 8.34212524 19.05775574 8.35235596 20.01669312 C8.38158599 23.0997006 8.39520778 26.1825016 8.40625 29.265625 C8.41776287 31.41876222 8.42927821 33.57189943 8.4407959 35.72503662 C8.4618182 40.24769035 8.47349906 44.77027304 8.48046875 49.29296875 C8.49137791 55.049168 8.53929932 60.80440654 8.59641266 66.56030655 C8.63394599 71.01485787 8.64409178 75.46918555 8.6471405 79.92388153 C8.65314192 82.04310043 8.66902163 84.16231786 8.69551086 86.2813797 C8.88720244 102.80974146 7.3026544 117.08268069 -4 130 C-11.88506166 123.46666319 -16.10585925 111.60474859 -17.28341484 101.58953094 C-17.3919315 99.13510315 -17.41717288 96.69602677 -17.40405273 94.23925781 C-17.41091599 93.3208461 -17.41777924 92.40243439 -17.42485046 91.45619202 C-17.44298309 88.45500742 -17.43930261 85.45435197 -17.43359375 82.453125 C-17.43815994 80.35186597 -17.44346682 78.25060842 -17.44947815 76.14935303 C-17.45838101 71.76177877 -17.45601587 67.37438685 -17.44604492 62.98681641 C-17.43452066 57.36899255 -17.45483419 51.75179404 -17.48396206 46.13405228 C-17.50231145 41.80171734 -17.50203474 37.46953292 -17.49632454 33.13716888 C-17.49617138 31.06555042 -17.5022116 28.99392172 -17.51461601 26.92234039 C-17.52951141 24.02888127 -17.5188618 21.13658697 -17.50170898 18.24316406 C-17.51621094 16.96660698 -17.51621094 16.96660698 -17.53100586 15.66426086 C-17.45257374 9.33856824 -15.58325341 5.87028157 -11.3125 1.125 C-7.5959403 -0.68305607 -4.04487291 -0.63792623 0 0 Z " fill="#020202" transform="translate(204,127)"/>
</svg>
